# Blender v2.79 (sub 0) OBJ File: ''
# www.blender.org
mtllib Shield.mtl
o O_shield_Shield.001
v 0.131672 0.646394 0.012988
v 0.245025 0.646394 0.012988
v 0.245025 0.646394 -0.052262
v 0.131672 0.646394 -0.052262
v -0.160684 1.018955 -0.052262
v -0.160684 1.048553 -0.099455
v -0.160684 1.115971 0.026695
v -0.160684 1.018955 0.026695
v 0.131672 0.616797 -0.099455
v 0.245025 0.616797 -0.099455
v 0.245025 0.549378 0.012988
v 0.131672 0.549378 0.012988
v -0.274037 1.048553 -0.099455
v -0.274037 1.115971 0.026695
v -0.274037 1.018955 0.026695
v -0.274037 1.018955 -0.052262
v -0.160684 0.832675 -0.125757
v -0.274037 0.832675 -0.125757
v 0.131672 0.832675 -0.125757
v 0.131672 1.048553 -0.099455
v 0.245025 1.048553 -0.099455
v 0.245025 0.832675 -0.125757
v 0.131672 1.018955 0.026695
v 0.131672 1.018955 -0.052262
v 0.245025 1.018955 -0.052262
v 0.245025 1.018955 0.026695
v -0.274037 0.616797 -0.099455
v -0.274037 0.549378 0.012988
v -0.274037 0.646394 0.012988
v -0.274037 0.646394 -0.052262
v 0.131672 1.115971 0.026695
v 0.245025 1.115971 0.026695
v -0.160684 0.646394 -0.052262
v -0.160684 0.646394 0.012988
v -0.160684 0.549378 0.012988
v -0.160684 0.616797 -0.099455
v 0.131672 0.832675 -0.078563
v 0.245025 0.832675 -0.078563
v -0.160684 0.832675 -0.078563
v -0.274037 0.832675 -0.078563
v 0.168302 0.265796 0.030322
v 0.515244 0.652766 0.030999
v -0.007816 0.571838 0.104855
v 0.359444 0.970584 0.077051
v -0.007816 1.222417 0.104855
v -0.531632 0.652766 0.030822
v -0.183934 0.265796 0.030322
v 0.402758 1.347216 0.056765
v -0.418387 1.347216 0.052525
v -0.668389 1.272018 -0.004147
v -0.375074 0.970584 0.077051
v 0.663364 1.086108 -0.028419
v -0.678996 1.086108 -0.028419
v 0.652757 1.272018 -0.004147
v -0.007816 0.136305 0.015788
v -0.007816 1.387386 0.104855
v 0.234630 0.168829 0.058799
v 0.000000 0.030848 -0.064208
v 0.239865 0.193358 -0.052564
v -0.621157 0.588984 -0.052927
v -0.810715 1.062923 -0.024993
v -0.780195 1.062923 -0.092747
v 0.445338 1.453340 -0.004258
v 0.786510 1.358112 0.013261
v 0.795664 1.358112 -0.096578
v -0.469479 1.488864 0.087261
v 0.000786 1.509361 0.048688
v -0.460967 1.488864 -0.010120
v 0.641045 0.588984 0.029107
v 0.621915 0.588984 -0.053107
v -0.288928 0.247163 -0.050473
v -0.654807 0.588984 0.028919
v 0.437522 1.453340 0.085170
v -0.774466 1.344818 0.007275
v -0.766651 1.344818 -0.086515
v 0.803818 1.062923 -0.024993
v 0.780195 1.062923 -0.092749
v -0.247682 0.171660 0.041304
v -0.239865 0.193358 -0.052564
v 0.694803 1.086108 -0.001940
v 0.000000 1.284213 0.050957
v 0.398547 1.176160 0.014071
v 0.400884 0.770388 -0.024592
v -0.427559 1.189454 0.007968
v -0.400884 0.770390 -0.024592
v -0.008233 0.004694 0.048935
v -0.000169 0.399505 -0.017258
v -0.418387 1.347216 0.096242
v -0.007029 1.509361 0.138116
v -0.668389 1.272018 0.031092
v -0.701699 1.086108 -0.001940
v -0.556711 0.652766 0.057717
v -0.296840 0.225884 0.041578
v -0.206027 0.243082 0.058847
v -0.008233 0.122357 0.076133
v 0.170883 0.255029 0.082150
v 0.542948 0.652766 0.057896
v 0.662282 1.272853 0.041154
v 0.402758 1.347216 0.092003
v -0.007816 1.387386 0.140093
v -0.183934 0.257861 0.064653
v 0.000000 0.770638 0.030652
v -0.204737 0.264335 -0.032090
vt 0.778328 0.874989
vt 0.745379 0.991703
vt 0.731864 0.871137
vt 0.846412 0.709774
vt 0.892016 0.882804
vt 0.866097 0.885822
vt 0.612196 0.843537
vt 0.652107 0.980159
vt 0.610047 0.993859
vt 0.646485 0.498337
vt 0.610047 0.667588
vt 0.610591 0.491400
vt 0.761698 0.657726
vt 0.729896 0.657776
vt 0.862486 0.539713
vt 0.877235 0.713815
vt 0.646060 0.834241
vt 0.669889 0.369598
vt 0.634939 0.357736
vt 0.783157 0.478626
vt 0.756999 0.474791
vt 0.903092 0.375614
vt 0.909606 0.478009
vt 0.877210 0.478375
vt 0.883678 0.986255
vt 0.776412 0.366177
vt 0.824700 0.484127
vt 0.871066 0.427262
vt 0.839496 0.490318
vt 0.242342 0.172786
vt 0.372077 0.126634
vt 0.451204 0.237035
vt 0.076319 0.205681
vt 0.199705 0.111099
vt 0.143492 0.280466
vt 0.017824 0.305712
vt 0.068309 0.385580
vt 0.230000 0.390993
vt 0.204513 0.483409
vt 0.361059 0.512997
vt 0.795549 0.992563
vt 0.410947 0.415162
vt 0.516658 0.426483
vt 0.482081 0.516840
vt 0.502445 0.083539
vt 0.546929 0.245181
vt 0.333111 0.041303
vt 0.451046 -0.001080
vt 0.700948 0.510802
vt 0.645445 0.664597
vt 0.710095 0.406059
vt 0.956524 0.948229
vt 0.932057 0.881183
vt 0.922211 0.714628
vt 0.897219 0.546652
vt 0.923728 0.512428
vt 0.976786 0.433540
vt 0.951619 0.389399
vt 0.833745 0.957642
vt 0.821870 0.867210
vt 0.805820 0.658039
vt 0.858066 0.417276
vt 0.818333 0.373831
vt 0.697521 0.936900
vt 0.690129 0.827105
vt 0.689756 0.666028
vt 0.858223 0.951317
vt 0.934376 0.710713
vt 0.944587 0.877477
vt 0.703967 0.828717
vt 0.716021 0.935475
vt 0.703041 0.666545
vt 0.842304 0.862787
vt 0.947459 0.518905
vt 0.717661 0.509158
vt 0.819183 0.662638
vt 0.934758 0.512616
vt 0.994990 0.447916
vt 0.967003 0.942275
vt 0.339768 0.312797
vt 0.381018 0.491530
vt 0.385329 0.518485
vt 0.919146 0.980822
vt 0.723834 0.403910
vt 0.877890 0.504920
vt 0.654489 0.146135
vt 0.676238 0.101512
vt 0.701925 0.114031
vt 0.680741 0.169388
vt 0.869829 0.268410
vt 0.871134 0.243721
vt 0.936554 0.260587
vt 0.900245 0.297960
vt 0.685422 0.196219
vt 0.688465 0.243934
vt 0.623156 0.258497
vt 0.619665 0.191800
vt 0.878366 0.200296
vt 0.942361 0.197871
vt 0.689859 0.268638
vt 0.670190 0.299013
vt 0.905519 0.103919
vt 0.920945 0.158795
vt 0.880874 0.174032
vt 0.867295 0.114665
vt 0.780349 0.247113
vt 0.781325 0.189996
vt 0.781325 0.189996
vt 0.878366 0.200296
vt 0.871134 0.243721
vt 0.780349 0.247113
vt 0.920945 0.158795
vt 0.880874 0.174032
vt 0.867295 0.114665
vt 0.905519 0.103919
vt 0.685422 0.196219
vt 0.619665 0.191800
vt 0.654489 0.146135
vt 0.680741 0.169388
vt 0.942361 0.197871
vt 0.936554 0.260587
vt 0.689859 0.268638
vt 0.670190 0.299013
vt 0.623156 0.258497
vt 0.688465 0.243934
vt 0.900245 0.297960
vt 0.869829 0.268410
vt 0.676238 0.101512
vt 0.701925 0.114031
vt 0.781689 0.171359
vt 0.780357 0.268460
vt 0.782445 0.120916
vt 0.780357 0.268460
vt 0.781689 0.171359
vt 0.782445 0.120916
vt 0.213512 0.496327
vt 0.398124 0.570714
vt 0.204713 0.633270
vt 0.396811 0.707482
vt 0.312372 0.855908
vt 0.035328 0.746187
vt 0.091891 0.555153
vt 0.476042 0.829537
vt 0.189905 0.967936
vt 0.088503 0.984563
vt 0.143630 0.829899
vt 0.526947 0.692632
vt 0.051263 0.922730
vt 0.552341 0.760193
vt 0.130940 0.480748
vt 0.339946 0.912917
vn 0.5322 -0.6338 0.5613
vn 0.0165 -0.6870 -0.7265
vn 0.4276 -0.4829 -0.7642
vn -0.4874 -0.3548 -0.7979
vn -0.9173 -0.1196 0.3799
vn -0.4818 -0.0798 -0.8726
vn 0.0301 0.7314 -0.6813
vn 0.6703 0.4870 0.5599
vn 0.5663 0.4939 -0.6598
vn -0.2865 0.7039 0.6500
vn 0.0390 0.7501 -0.6602
vn -0.0707 0.7313 -0.6783
vn 0.7587 -0.4110 0.5054
vn 0.5389 -0.3754 -0.7541
vn -0.1241 -0.6489 -0.7507
vn -0.7851 -0.4265 0.4491
vn 0.2393 0.6901 0.6830
vn -0.7346 0.4457 0.5115
vn -0.5156 0.4703 -0.7162
vn 0.8882 -0.1701 0.4268
vn 0.5024 -0.1207 -0.8562
vn -0.8574 -0.2792 0.4323
vn -0.7313 -0.0502 -0.6803
vn -0.2189 -0.0156 0.9756
vn -0.4218 -0.5549 0.7170
vn -0.2183 0.0323 0.9754
vn 0.0033 0.0137 -0.9999
vn -0.1648 0.0320 -0.9858
vn -0.1327 0.0566 -0.9895
vn 0.1737 0.0263 -0.9844
vn 0.1333 0.0524 -0.9897
vn -0.0308 -0.8984 0.4380
vn -0.0160 0.0947 -0.9954
vn -0.0052 -0.6683 0.7438
vn 0.0267 0.7055 0.7082
vn 0.1838 -0.4714 0.8626
vn 0.2822 0.0152 0.9592
vn 0.1946 0.1758 0.9650
vn -0.2935 -0.8513 0.4350
vn -0.3493 -0.2473 0.9038
vn -0.0391 0.2660 0.9632
vn -0.3322 0.3927 0.8575
vn -0.1769 0.1787 0.9679
vn -0.1533 -0.4035 0.9020
vn -0.0082 -0.6715 0.7410
vn 0.0037 -0.6528 0.7576
vn -0.0006 0.6943 0.7197
vn 0.3201 0.2680 0.9087
vn 0.2968 0.0410 0.9541
vn -0.0300 -0.7273 0.6856
vn -0.0031 -0.7549 0.6559
vn -0.4347 0.4195 0.7969
vn 0.4410 0.4227 0.7917
vn 0.0358 -0.7217 0.6913
vn -0.2975 0.2581 0.9192
vn 0.3343 0.4209 0.8432
vn 0.5034 -0.5532 0.6638
vn -0.0000 0.0835 -0.9965
vn -0.1098 -0.0600 -0.9921
vn 0.0000 1.0000 0.0000
vn 1.0000 0.0000 0.0000
vn 0.0000 -0.8577 -0.5142
vn 0.0000 0.8820 -0.4713
vn -1.0000 0.0000 0.0000
vn 0.0000 -1.0000 0.0000
vn 0.0000 0.1209 -0.9927
vn 0.0000 -0.1398 0.9902
vn 0.0000 -0.1209 -0.9927
vn 0.0000 0.1398 0.9902
vn -0.0000 -0.1103 0.9939
vn 0.1903 -0.0060 0.9817
vn -0.0031 0.0134 0.9999
vn -0.1901 -0.0029 0.9818
usemtl Material.001
s 1
f 57/1/1 58/2/2 59/3/3
f 60/4/4 61/5/5 62/6/6
f 63/7/7 64/8/8 65/9/9
f 66/10/10 67/11/11 68/12/12
f 69/13/13 59/3/3 70/14/14
f 71/15/15 72/16/16 60/4/4
f 67/11/11 73/17/17 63/7/7
f 74/18/18 68/12/12 75/19/19
f 76/20/20 70/14/14 77/21/21
f 58/22/2 78/23/22 79/24/23
f 61/5/5 75/25/19 62/6/6
f 65/26/9 76/20/20 77/21/21
f 80/27/24 54/28/25 52/29/26
f 81/30/27 82/31/28 83/32/29
f 81/30/27 68/33/12 67/34/11
f 84/35/30 75/36/19 68/33/12
f 84/35/30 62/37/6 75/36/19
f 85/38/31 60/39/4 62/37/6
f 85/38/31 71/40/15 60/39/4
f 57/1/1 86/41/32 58/2/2
f 87/42/33 59/43/3 58/44/2
f 83/32/29 59/43/3 87/42/33
f 83/32/29 77/45/21 70/46/14
f 82/31/28 77/45/21 83/32/29
f 82/31/28 63/47/7 65/48/9
f 81/30/27 63/47/7 82/31/28
f 88/49/34 89/50/35 66/10/10
f 90/51/36 66/10/10 74/18/18
f 90/52/36 61/5/5 91/53/37
f 92/54/38 61/5/5 72/16/16
f 92/54/38 93/55/39 94/56/40
f 95/57/41 78/23/22 86/58/32
f 95/59/41 57/1/1 96/60/42
f 96/60/42 69/13/13 97/61/43
f 97/61/43 76/20/20 80/27/24
f 98/62/44 76/20/20 64/63/8
f 98/64/44 73/17/17 99/65/45
f 99/65/45 89/50/35 100/66/46
f 96/60/42 55/67/47 95/59/41
f 91/53/37 46/68/48 53/69/49
f 98/64/44 48/70/50 54/71/25
f 88/49/34 56/72/51 100/66/46
f 97/61/43 41/73/52 96/60/42
f 92/54/38 47/74/53 46/68/48
f 99/65/45 56/72/51 48/70/50
f 90/51/36 49/75/54 88/49/34
f 80/27/24 42/76/55 97/61/43
f 101/77/56 55/78/47 47/74/53
f 91/53/37 50/79/57 90/52/36
f 102/80/58 83/32/29 87/42/33
f 81/30/27 83/32/29 102/80/58
f 84/35/30 81/30/27 85/38/31
f 60/4/4 72/16/16 61/5/5
f 85/38/31 102/80/58 87/42/33
f 85/38/31 81/30/27 102/80/58
f 63/7/7 73/17/17 64/8/8
f 103/81/59 85/38/31 87/42/33
f 79/82/23 103/81/59 58/44/2
f 103/81/59 87/42/33 58/44/2
f 66/10/10 89/50/35 67/11/11
f 69/13/13 57/1/1 59/3/3
f 71/15/15 93/55/39 72/16/16
f 67/11/11 89/50/35 73/17/17
f 74/18/18 66/10/10 68/12/12
f 76/20/20 69/13/13 70/14/14
f 58/22/2 86/58/32 78/23/22
f 61/5/5 74/83/18 75/25/19
f 65/26/9 64/63/8 76/20/20
f 80/27/24 98/62/44 54/28/25
f 81/30/27 84/35/30 68/33/12
f 84/35/30 85/38/31 62/37/6
f 85/38/31 103/81/59 71/40/15
f 83/32/29 70/46/14 59/43/3
f 82/31/28 65/48/9 77/45/21
f 81/30/27 67/34/11 63/47/7
f 88/49/34 100/66/46 89/50/35
f 90/51/36 88/49/34 66/10/10
f 90/52/36 74/83/18 61/5/5
f 92/54/38 91/53/37 61/5/5
f 92/54/38 72/16/16 93/55/39
f 95/57/41 94/56/40 78/23/22
f 95/59/41 86/41/32 57/1/1
f 96/60/42 57/1/1 69/13/13
f 97/61/43 69/13/13 76/20/20
f 98/62/44 80/27/24 76/20/20
f 98/64/44 64/8/8 73/17/17
f 99/65/45 73/17/17 89/50/35
f 96/60/42 41/73/52 55/67/47
f 91/53/37 92/54/38 46/68/48
f 98/64/44 99/65/45 48/70/50
f 88/49/34 49/75/54 56/72/51
f 97/61/43 42/76/55 41/73/52
f 92/54/38 101/77/56 47/74/53
f 99/65/45 100/66/46 56/72/51
f 90/51/36 50/84/57 49/75/54
f 80/27/24 52/29/26 42/76/55
f 101/77/56 95/57/41 55/78/47
f 91/53/37 53/69/49 50/79/57
f 93/55/39 71/15/15 103/85/59
f 94/56/40 103/85/59 79/24/23
f 94/56/40 79/24/23 78/23/22
f 93/55/39 103/85/59 94/56/40
f 94/56/40 101/77/56 92/54/38
f 94/56/40 95/57/41 101/77/56
usemtl Proper_shield.001
s off
f 1/86/60 2/87/60 3/88/60 4/89/60
f 5/90/61 6/91/61 7/92/61 8/93/61
f 9/94/62 10/95/62 11/96/62 12/97/62
f 6/91/63 13/98/63 14/99/63 7/92/63
f 4/89/64 9/94/64 12/97/64 1/86/64
f 10/95/61 3/100/61 2/101/61 11/96/61
f 8/102/65 15/103/65 16/104/65 5/105/65
f 17/106/66 18/107/66 13/98/66 6/91/66
f 19/108/66 20/109/66 21/110/66 22/111/66
f 23/112/65 24/113/65 25/114/65 26/115/65
f 27/116/64 28/117/64 29/118/64 30/119/64
f 20/109/63 31/120/63 32/121/63 21/110/63
f 33/122/61 34/123/61 35/124/61 36/125/61
f 24/113/64 23/112/64 31/120/64 20/109/64
f 21/110/61 32/121/61 26/126/61 25/127/61
f 36/125/62 35/124/62 28/117/62 27/116/62
f 34/128/60 33/129/60 30/119/60 29/118/60
f 37/130/64 24/113/64 20/109/64 19/108/64
f 22/111/61 21/110/61 25/127/61 38/131/61
f 38/132/67 25/114/67 24/113/67 37/130/67
f 9/94/68 19/108/68 22/111/68 10/95/68
f 4/89/64 37/130/64 19/108/64 9/94/64
f 10/95/61 22/111/61 38/131/61 3/100/61
f 3/88/69 38/132/69 37/130/69 4/89/69
f 13/98/64 16/104/64 15/103/64 14/99/64
f 39/133/61 17/106/61 6/91/61 5/90/61
f 18/107/64 40/134/64 16/104/64 13/98/64
f 40/134/67 39/135/67 5/105/67 16/104/67
f 36/125/68 27/116/68 18/107/68 17/106/68
f 33/122/61 36/125/61 17/106/61 39/133/61
f 27/116/64 30/119/64 40/134/64 18/107/64
f 30/119/69 33/129/69 39/135/69 40/134/69
s 1
f 41/136/52 42/137/55 43/138/70
f 44/139/71 45/140/72 43/138/70
f 46/141/48 47/142/53 43/138/70
f 48/143/50 45/140/72 44/139/71
f 49/144/54 50/145/57 51/146/73
f 42/137/55 52/147/26 44/139/71
f 50/145/57 53/148/49 51/146/73
f 52/147/26 54/149/25 44/139/71
f 41/136/52 47/142/53 55/150/47
f 46/141/48 43/138/70 51/146/73
f 54/149/25 48/143/50 44/139/71
f 49/144/54 45/140/72 56/151/51
f 45/140/72 51/146/73 43/138/70
f 53/148/49 46/141/48 51/146/73
f 43/138/70 42/137/55 44/139/71
f 48/143/50 56/151/51 45/140/72
f 41/136/52 43/138/70 47/142/53
f 49/144/54 51/146/73 45/140/72
